<?xml version="1.0" ?><!DOCTYPE svg  PUBLIC '-//W3C//DTD SVG 1.1//EN'  'http://www.w3.org/Graphics/SVG/1.1/DTD/svg11.dtd'><svg enable-background="new 0 0 800 800" id="Layer_1" version="1.1" viewBox="0 0 800 800" xml:space="preserve" xmlns="http://www.w3.org/2000/svg" xmlns:xlink="http://www.w3.org/1999/xlink"><g id="Layer_1_1_"/><circle cx="399.5" cy="399.8" fill="#00BFF8" r="400"/><path d="M399.5,799.8c220.9,0,400-179.1,400-400c0-106.6-41.7-203.1-109.5-274.8L120.9,686.9  C193,756.7,291.3,799.8,399.5,799.8z" fill="#2CB1DF"/><path d="M474.8,375.6c-21.2-20.4-46.8-31-75.9-33.6c-36.3-3.2-69.2,4.7-97.5,28.8c-2.2,1.9-4.5,3.6-7.1,5.8  c-0.1-1.7-0.2-2.8-0.2-3.9c0-24.7,0.1-49.4,0-74.1c0-10,0.2-20.2-0.8-30.1c-1.8-19.1-12.6-38.1-38.8-40.5  c-18-1.6-34.1,5.7-42.1,23.7c-4.2,9.4-5.5,19.3-5.5,29.4c0,111.6,0,223.2,0.1,334.7c0,5.3,0.6,10.7,1.7,15.9  c4.1,20,19.1,33,38.8,33.8c20.9,0.9,37.8-10.8,43.8-30.3c0.8-2.7,1.5-5.5,2.4-8.7c2.1,2.2,4,4.2,5.9,6  c20.7,20.1,45.5,30.5,74.1,32.6c29.1,2.1,56.2-3.8,80.7-20c25.5-16.9,41.8-40.8,52.4-69c9-24.1,12.5-49.2,12.6-74.8  c0.1-23-2.4-45.7-9.6-67.7C502.5,411.5,491.5,391.7,474.8,375.6z M419.4,550.6c-7.6,18.1-19.6,32.5-38.9,38.3  c-26.4,8-59.5-2.3-74.3-35.9c-6.5-14.7-8.4-30.3-8.5-46.2c-0.2-20.1,2.3-39.6,11.6-57.7c8.8-17.1,21.6-29.5,40.7-34.2  c27.7-6.8,52.6,4.9,65.6,30.6c8.1,16.1,11.9,34.1,11.8,57.3C427.4,519.1,425.9,535.3,419.4,550.6z" fill="#FFFFFF"/><path d="M506.6,576c9-24.1,12.5-49.2,12.6-74.8c0.1-23-2.4-45.7-9.6-67.7c-7.2-22-18.1-41.8-34.9-57.9  c-6.8-6.5-14-12.1-21.7-16.6l-61.5,60.7c9.9,5.5,18.2,14.2,24.1,25.8c8.1,16.1,11.9,34.1,11.8,57.3c-0.1,16.4-1.6,32.6-8,47.8  c-7.6,18.1-19.6,32.5-38.9,38.3c-26.4,8-59.5-2.3-74.3-35.9c-5.7-13-7.9-26.8-8.4-40.8L207,601.9c0,4.6,0,9.2,0,13.8  c0,5.3,0.6,10.7,1.7,15.9c4.1,20,19.1,33,38.8,33.8c20.9,0.9,37.8-10.8,43.8-30.3c0.8-2.7,1.5-5.5,2.4-8.7c2.1,2.2,4,4.2,5.9,6  c20.7,20.1,45.5,30.5,74.1,32.6c29.1,2.1,56.2-3.8,80.7-20C479.8,628.2,496.1,604.3,506.6,576z" fill="#F1F2F2"/><path d="M586.8,179.9c-10.3-35.5-51.6-46.5-78-20.6c-5.4,5.2-9.4,11.8-13.6,17.2c-4.4-5.6-8.5-12.4-14-17.9  c-19.1-19.1-48.4-18.7-66,0.5c-8.1,8.8-12.1,19.6-13.7,31.3c-2.4,17.7,1.8,33.3,15.7,45.1c7.6,6.3,15.9,11.9,24.4,16.9  c13.3,7.9,26.7,15.5,37.5,26.7c6,6.2,11.4,13.2,16.8,19.6c1.2-1.7,2.5-4.2,4.2-6.4c11.2-14.5,25-26,40.5-35.6  c8.4-5.2,17.1-10.2,25.2-15.8c11.4-7.9,20.3-17.8,23-32C590.6,199.1,589.6,189.4,586.8,179.9z" fill="#FFFFFF"/></svg>